<svg xmlns="http://www.w3.org/2000/svg" width="21.998" height="22.001"><path d="M21.698.831a.751.751 0 00-.531-.53 15.771 15.771 0 00-3.59-.3c-4.457 0-7.14 2.368-9.148 5.5H4.074a2.258 2.258 0 00-1.842 1.137L.109 10.884a1.224 1.224 0 00-.108.46 1.032 1.032 0 001.031 1.031h3.979l-.455.92a1.62 1.62 0 00-.141.6 1.566 1.566 0 00.405.97l2.31 2.308a1.365 1.365 0 001.574.264l.918-.455v3.982a1.032 1.032 0 001.031 1.031 1.224 1.224 0 00.46-.108l4.241-2.123a2.253 2.253 0 001.144-1.836v-4.362c3.124-2.01 5.5-4.7 5.5-9.14a15.6 15.6 0 00-.3-3.595zm-6.3 10.985c-1.587.794-5.2 2.584-7.167 3.555L6.627 13.76c.971-1.963 2.761-5.586 3.554-7.172 2.037-3.172 4.255-4.526 7.4-4.526a17.07 17.07 0 012.258.1 16.665 16.665 0 01.1 2.262c-.003 3.126-1.36 5.344-4.534 7.392zm.405-7.348a1.719 1.719 0 101.719 1.719 1.719 1.719 0 00-1.711-1.718z" fill="#1a90a2"/></svg>