<svg xmlns="http://www.w3.org/2000/svg" width="17.438" height="15.751"><path d="M.319 3.813a.481.481 0 00.3.125.482.482 0 00.3-.122l1.9-1.852V15.47a.281.281 0 00.281.281h.563a.281.281 0 00.275-.281V1.97l1.9 1.84a.485.485 0 00.3.123.485.485 0 00.3-.123l.2-.2a.484.484 0 00.124-.3.485.485 0 00-.124-.3L3.672.126a.482.482 0 00-.3-.123.482.482 0 00-.3.123L.119 3.02a.484.484 0 00-.126.3.485.485 0 00.123.3zm8.819 1.813h5.347a.7.7 0 00.7-.7V.707a.7.7 0 00-.7-.7H9.138a.7.7 0 00-.7.7v4.219a.7.7 0 00.7.7zm.422-4.5h4.5v3.375h-4.5zm6.894 6.75H9.422a.985.985 0 00-.984.984v5.907a.985.985 0 00.984.984h7.032a.985.985 0 00.984-.984V8.86a.985.985 0 00-.984-.984zm-.141 6.75h-6.75V9.001h6.75z" fill="#fff"/></svg>