<svg xmlns="http://www.w3.org/2000/svg" width="13.5" height="15.75"><path d="M8.118 1.125a.564.564 0 01.563.563v5.063h3.3a.281.281 0 01.2.478L7.15 12.277a.562.562 0 01-.8 0L1.322 7.225a.28.28 0 01.2-.478h3.3V1.685a.564.564 0 01.563-.562zm0-1.125H5.386a1.688 1.688 0 00-1.687 1.688v3.937H1.522a1.405 1.405 0 00-.995 2.4l5.023 5.046a1.689 1.689 0 002.391 0l5.035-5.046a1.406 1.406 0 00-.995-2.4H9.805V1.684A1.69 1.69 0 008.118 0zM13.5 15.325v-.278a.423.423 0 00-.422-.422H.422a.423.423 0 00-.422.422v.278a.423.423 0 00.422.422h12.656a.423.423 0 00.422-.422z" fill="#fff"/></svg>