<svg xmlns="http://www.w3.org/2000/svg" width="27.502" height="19.254"><path d="M15.037 8.775V6.226h-2.84v2.549zm0-8.779h-2.84v2.612h2.84zm3.36 6.222h-2.845v2.557h2.84zm-6.716-3.1h-2.84v2.588h2.84zm3.356 0h-2.84v2.588h2.84zm11.894 4.3a5.031 5.031 0 00-3.141-.361 4.153 4.153 0 00-1.766-2.737l-.6-.4-.4.6a4.356 4.356 0 00-.159 4.46 4.322 4.322 0 01-2.08.46H.105a9.021 9.021 0 001.891 6.965c1.594 1.886 3.983 2.844 7.107 2.844 6.763 0 11.769-3.115 14.111-8.774a3.96 3.96 0 003.923-1.942c.064-.107.284-.567.365-.735zM4.969 6.222H2.133v2.553h2.84V6.222zm3.356 0h-2.84v2.553h2.84zm3.356 0h-2.84v2.553h2.84zm-3.356-3.1h-2.84v2.584h2.84z" fill="#1a90a2"/></svg>