<svg data-name="Component 16 – 1" xmlns="http://www.w3.org/2000/svg" width="60" height="60"><circle data-name="Ellipse 22" cx="30" cy="30" r="30" fill="#fff"/><path data-name="Path 927" d="M43.5 18h-21a1.442 1.442 0 00-1.5 1.375v3.875h2.25v-3h2.25v3h2.25v-3h10.5V34.5h5.25a1.442 1.442 0 001.5-1.375v-13.75A1.442 1.442 0 0043.5 18zm-.75 14.25H40.5v-2.625h2.25zm0-4.875H40.5v-2.25h2.25zm0-4.5H40.5V20.25h2.25zM21 33a1.5 1.5 0 001.5-1.5A1.5 1.5 0 0021 30a1.5 1.5 0 00-1.5 1.5A1.5 1.5 0 0021 33zm13.5-7.5h-18A1.5 1.5 0 0015 27v13.5a1.5 1.5 0 001.5 1.5h18a1.5 1.5 0 001.5-1.5V27a1.5 1.5 0 00-1.5-1.5zm-.75 11.25l-4.72-4.72a.862.862 0 00-.53-.219.862.862 0 00-.53.219l-4.72 4.72-1.72-1.72a.862.862 0 00-.53-.219.862.862 0 00-.53.219l-3.22 3.22v-10.5h16.5z" fill="#1a90a2"/></svg>