<svg xmlns="http://www.w3.org/2000/svg" width="20.252" height="17.998"><path d="M8.034 17.991a.213.213 0 00.26-.148L13.241.518a.209.209 0 00-.144-.26l-.879-.25a.209.209 0 00-.26.144L7.011 17.481a.209.209 0 00.144.26zm-2.658-4.405l.65-.738a.174.174 0 00-.018-.25l-4.254-3.6 4.254-3.6a.174.174 0 00.018-.25l-.65-.735a.174.174 0 00-.25-.017L.061 8.868a.174.174 0 000 .264l5.065 4.471a.178.178 0 00.25-.017zm9.75.014l5.065-4.472a.174.174 0 000-.264l-5.065-4.468a.181.181 0 00-.25.014l-.65.738a.174.174 0 00.018.25l4.254 3.6-4.254 3.6a.174.174 0 00-.018.25l.65.735a.174.174 0 00.25.017z" fill="#fff"/></svg>