<svg xmlns="http://www.w3.org/2000/svg" width="17.438" height="17.438"><path d="M.419.563a.422.422 0 00-.422.422v5.063a.422.422 0 00.422.421h5.063a.422.422 0 00.422-.422v-.352a.422.422 0 00-.422-.422H2.029a7.521 7.521 0 016.69-4.077 7.523 7.523 0 017.523 7.523 7.523 7.523 0 01-7.523 7.523 7.494 7.494 0 01-5.031-1.928.421.421 0 00-.579.016l-.249.249a.423.423 0 00.017.613 8.687 8.687 0 005.842 2.246 8.719 8.719 0 008.719-8.7A8.738 8.738 0 008.747 0a8.714 8.714 0 00-7.551 4.311V.984A.422.422 0 00.774.562zM11.73 11.645l.165-.227a.422.422 0 00-.093-.589l-2.52-1.834v-5.2a.422.422 0 00-.422-.422h-.282a.422.422 0 00-.422.422v5.774l2.984 2.17a.422.422 0 00.59-.094z" fill="#fff"/></svg>