<svg xmlns="http://www.w3.org/2000/svg" width="22.499" height="18"><path d="M7.875 9a4.5 4.5 0 004.5-4.5 4.5 4.5 0 00-4.5-4.5 4.5 4.5 0 00-4.5 4.5 4.5 4.5 0 004.5 4.5zm0-7.875A3.38 3.38 0 0111.25 4.5a3.38 3.38 0 01-3.375 3.375A3.38 3.38 0 014.5 4.5a3.38 3.38 0 013.375-3.375zM22.17 8.3l-1.22-1.22a1.125 1.125 0 00-.8-.33 1.131 1.131 0 00-.8.33l-7.826 7.826-.267 2.4a.626.626 0 00.622.7.473.473 0 00.07 0l2.4-.267 7.821-7.832a1.144 1.144 0 000-1.607zm-8.343 8.35l-1.385.158.154-1.385 5.517-5.516 1.23 1.23zm6.31-6.307l-1.23-1.23 1.238-1.238h.007l1.22 1.23zm-15.412.907c.689 0 1.375.563 3.15.563s2.461-.563 3.15-.563a3.568 3.568 0 011.969.594l.8-.8a4.682 4.682 0 00-2.77-.914c-1.009 0-1.494.563-3.15.563s-2.137-.562-3.15-.562A4.721 4.721 0 000 14.85v1.463A1.688 1.688 0 001.688 18h8.562a1.77 1.77 0 01-.113-.823l.035-.3H1.688a.564.564 0 01-.562-.562V14.85a3.6 3.6 0 013.599-3.6z" fill="#fff"/></svg>