<svg xmlns="http://www.w3.org/2000/svg" width="15.75" height="18"><path d="M14.063 2.25h-1.688V.281A.282.282 0 0012.094 0h-.563a.282.282 0 00-.281.281V2.25H4.5V.281A.282.282 0 004.219 0h-.562a.282.282 0 00-.281.281V2.25H1.688A1.688 1.688 0 00.001 3.938v12.375A1.688 1.688 0 001.688 18h12.375a1.688 1.688 0 001.687-1.687V3.938a1.688 1.688 0 00-1.687-1.688zm.562 14.063a.564.564 0 01-.562.563H1.688a.564.564 0 01-.563-.563V6.75h13.5zm0-10.687h-13.5V3.939a.564.564 0 01.563-.562h12.375a.564.564 0 01.563.563zM3.938 13.5h3.375a.564.564 0 00.562-.562V9.563A.564.564 0 007.313 9H3.938a.564.564 0 00-.562.563v3.375a.564.564 0 00.562.562zm.563-3.375h2.25v2.25h-2.25z" fill="#fff"/></svg>