<svg xmlns="http://www.w3.org/2000/svg" width="15.75" height="18"><path data-name="Path 932" d="M15.256 2.318L13.432.494A1.938 1.938 0 0012.239 0H6.188A1.687 1.687 0 004.5 1.688v1.688H1.688A1.687 1.687 0 000 5.063v11.25A1.687 1.687 0 001.688 18h7.875a1.687 1.687 0 001.687-1.687v-1.688h2.813a1.687 1.687 0 001.687-1.687V3.512a1.938 1.938 0 00-.494-1.194zm-2.881-1.176a.658.658 0 01.261.147l1.824 1.824a.658.658 0 01.147.261h-2.232zm-2.25 15.171a.563.563 0 01-.562.563H1.688a.563.563 0 01-.563-.563V5.063a.563.563 0 01.563-.562H4.5v8.438a1.687 1.687 0 001.688 1.686h3.938zm4.5-3.375a.563.563 0 01-.562.563H6.188a.563.563 0 01-.562-.562V1.689a.563.563 0 01.563-.562h5.061v2.531a.846.846 0 00.844.844h2.531z" fill="#18719e"/></svg>