<svg xmlns="http://www.w3.org/2000/svg" width="22" height="19.25"><path d="M19.938 0H2.063A2.063 2.063 0 000 2.063v15.125a2.063 2.063 0 002.063 2.063h17.875A2.063 2.063 0 0022 17.188V2.063A2.063 2.063 0 0019.938 0zM16.5 3.438a1.375 1.375 0 111.375 1.375A1.374 1.374 0 0116.5 3.438zm-4.125 0a1.375 1.375 0 111.375 1.375 1.374 1.374 0 01-1.375-1.375zm-4.125 0a1.375 1.375 0 111.375 1.375A1.374 1.374 0 018.25 3.438zM19.938 16.93a.259.259 0 01-.258.258H2.32a.259.259 0 01-.258-.258V6.875h17.876z" fill="#1a90a2"/></svg>