<svg xmlns="http://www.w3.org/2000/svg" width="22" height="22"><path d="M15.834 0H6.188a2.063 2.063 0 00-2.063 2.063v17.875A2.063 2.063 0 006.188 22h9.646a2.063 2.063 0 002.066-2.062V2.063A2.063 2.063 0 0015.834 0zm0 19.637a.3.3 0 01-.258.3H6.445a.3.3 0 01-.258-.3V2.32a.259.259 0 01.258-.258h9.131a.259.259 0 01.258.258zM22 4.55a.259.259 0 00-.258-.258h-.773v-.253a.259.259 0 00-.258-.258h-1.8v2.063h1.8a.259.259 0 00.258-.258v-.258h.773A.259.259 0 0022 5.07zm0 4.13a.259.259 0 00-.258-.258h-.773v-.258a.259.259 0 00-.258-.258h-1.8v2.063h1.8a.259.259 0 00.258-.258V9.45h.773A.259.259 0 0022 9.195zm0 4.125a.259.259 0 00-.258-.258h-.773v-.258a.259.259 0 00-.258-.258h-1.8v2.063h1.8a.259.259 0 00.258-.258v-.258h.773A.259.259 0 0022 13.32zm0 4.125a.259.259 0 00-.258-.258h-.773v-.258a.259.259 0 00-.258-.258h-1.8v2.063h1.8a.259.259 0 00.258-.258v-.258h.773A.259.259 0 0022 17.45zm-20.711-.774a.259.259 0 00-.258.258v.258H.258A.259.259 0 000 16.93v.52a.259.259 0 00.258.258h.773v.258a.259.259 0 00.258.258h1.8v-2.068zm0-4.125a.259.259 0 00-.258.258v.261H.258a.259.259 0 00-.258.255v.516a.259.259 0 00.258.258h.773v.258a.259.259 0 00.258.258h1.8v-2.064zm0-4.125a.259.259 0 00-.258.258v.258H.258A.259.259 0 000 8.68v.516a.259.259 0 00.258.258h.773v.258a.259.259 0 00.258.258h1.8V7.906zm0-4.125a.259.259 0 00-.258.258v.258H.258A.259.259 0 000 4.55v.52a.259.259 0 00.258.258h.773v.258a.259.259 0 00.258.258h1.8V3.781z" fill="#1a90a2"/></svg>