<svg xmlns="http://www.w3.org/2000/svg" width="20.25" height="13.5"><path data-name="Path 918" d="M10.125 7.875a2.251 2.251 0 002.25-2.25 2.251 2.251 0 00-2.25-2.25c-.035 0-.066.008-.1.01a2 2 0 01.1.57 1.67 1.67 0 01-1.67 1.67 2 2 0 01-.57-.1c0 .035-.01.066-.01.1a2.251 2.251 0 002.25 2.25zm10-1.638a11.276 11.276 0 00-10-6.237 11.278 11.278 0 00-10 6.237A1.349 1.349 0 000 6.75a1.349 1.349 0 00.122.513A11.276 11.276 0 0010.125 13.5a11.278 11.278 0 0010-6.237 1.349 1.349 0 00.122-.513 1.349 1.349 0 00-.119-.513zm-10-5.112a4.5 4.5 0 014.5 4.5 4.5 4.5 0 01-4.5 4.5 4.5 4.5 0 01-4.5-4.5 4.509 4.509 0 014.5-4.5zm0 11.25a10.134 10.134 0 01-9-5.625A12.114 12.114 0 015.688 2.2 5.574 5.574 0 004.5 5.625a5.627 5.627 0 005.625 5.625 5.627 5.627 0 005.625-5.625A5.574 5.574 0 0014.562 2.2a12.114 12.114 0 014.563 4.55 10.133 10.133 0 01-9 5.625z" fill="#fff"/></svg>