<svg xmlns="http://www.w3.org/2000/svg" width="19.25" height="22"><path d="M4.813 15.813h4.125a.69.69 0 00.687-.688V11a.69.69 0 00-.687-.687H4.813a.69.69 0 00-.687.688v4.125a.69.69 0 00.687.687zM17.188 2.75h-2.063V.688a.69.69 0 00-.687-.687h-1.375a.69.69 0 00-.687.688V2.75h-5.5V.688a.69.69 0 00-.687-.687H4.813a.69.69 0 00-.688.687V2.75H2.063A2.063 2.063 0 000 4.813v15.125A2.063 2.063 0 002.063 22h15.125a2.063 2.063 0 002.063-2.062V4.813a2.063 2.063 0 00-2.063-2.063zm0 16.93a.259.259 0 01-.258.258H2.325a.259.259 0 01-.258-.258V6.875h15.121z" fill="#1a90a2"/></svg>