<svg xmlns="http://www.w3.org/2000/svg" width="22.004" height="22.001"><path d="M8.348 14.623l.941-.941a1.258 1.258 0 00.335.069 1.375 1.375 0 10-1.375-1.375 1.258 1.258 0 00.069.335l-.941.941-5.187-5.19a.726.726 0 00-.511-.211.664.664 0 00-.6.348 9.1 9.1 0 0012.326 12.319.7.7 0 00.133-1.109zm.748 5.315a6.985 6.985 0 01-4.971-2.058 7.081 7.081 0 01-1.9-6.467l8.366 8.366a7.3 7.3 0 01-1.492.16zM8.967.001a.7.7 0 00-.718.7v.688a.685.685 0 00.662.679 11.672 11.672 0 0111.026 11.017.686.686 0 00.679.666h.683a.7.7 0 00.7-.718A13.8 13.8 0 008.967.001zm0 4.125a.689.689 0 00-.722.7v.688a.685.685 0 00.662.679 7.524 7.524 0 016.892 6.901.69.69 0 00.679.653h.7a.694.694 0 00.7-.722 9.669 9.669 0 00-8.907-8.899z" fill="#1a90a2"/></svg>