<svg xmlns="http://www.w3.org/2000/svg" width="25.598" height="22.879"><path d="M10.258 22.364a.259.259 0 00.316-.179l6.008-21.04a.254.254 0 00-.175-.316l-1.068-.3a.254.254 0 00-.316.175L9.016 21.749a.254.254 0 00.175.316zm-3.232-5.347l.79-.892a.212.212 0 00-.021-.3l-5.163-4.38 5.167-4.381a.212.212 0 00.021-.3l-.79-.892a.212.212 0 00-.3-.017L.577 11.287a.211.211 0 000 .32l6.149 5.432a.216.216 0 00.3-.022zm11.845.017l6.155-5.431a.211.211 0 000-.32l-6.155-5.428a.22.22 0 00-.3.017l-.79.892a.212.212 0 00.021.3l5.164 4.381-5.167 4.377a.212.212 0 00-.021.3l.79.892a.212.212 0 00.303.02z" fill="#1a90a2" stroke="#1a90a2"/></svg>