<svg xmlns="http://www.w3.org/2000/svg" width="24.75" height="22"><path d="M2.063 6.875h20.625a.687.687 0 00.687-.687V4.602a.687.687 0 00-.446-.644L12.858.088a1.374 1.374 0 00-.966 0L1.821 3.958a.739.739 0 00-.446.644v1.586a.687.687 0 00.688.687zm10.312-4.764l7.029 2.7H5.346zm11.688 17.827h-.688v-2.75a1.483 1.483 0 00-1.571-1.375h-1.179V8.25h-2.062v7.563h-2.75V8.25H13.75v7.563H11V8.25H8.938v7.563h-2.75V8.25H4.125v7.563H2.946a1.483 1.483 0 00-1.571 1.375v2.75H.688a.687.687 0 00-.687.688v.688a.687.687 0 00.688.688h23.374a.687.687 0 00.688-.687v-.687a.687.687 0 00-.688-.69zm-2.75 0H3.438v-2.063h17.875z" fill="#1a90a2"/></svg>